<svg xmlns="http://www.w3.org/2000/svg" version="1.1" xmlns:xlink="http://www.w3.org/1999/xlink" width="512" height="512" x="0" y="0" viewBox="0 0 512 512" style="enable-background:new 0 0 512 512" xml:space="preserve" class=""><g><path d="M430.406 368.352c20.318-10.412 34.264-31.558 34.264-55.914 0-21.62-10.982-40.722-27.66-52.023l27.784-64.455c2.459.493 5.001.756 7.603.756 21.286 0 38.604-17.318 38.604-38.604s-17.317-38.604-38.604-38.604c-11.688 0-22.171 5.228-29.256 13.461L292.964 50.726a38.482 38.482 0 0 0 1.64-11.122C294.604 18.318 277.287 1 256.001 1s-38.604 17.317-38.604 38.604c0 3.866.578 7.598 1.64 11.122L68.86 132.969c-7.085-8.232-17.568-13.461-29.256-13.461C18.318 119.508 1 136.825 1 158.112s17.318 38.604 38.604 38.604c2.602 0 5.144-.263 7.604-.756l27.784 64.454c-16.678 11.302-27.661 30.404-27.661 52.024 0 24.356 13.947 45.502 34.264 55.914-43.642 11.919-77.031 50.439-80.552 97.373-.313 4.18 1.135 8.331 3.972 11.389s6.868 4.811 11.059 4.811h118.37a122.823 122.823 0 0 0-1.468 11.827v.001a16.103 16.103 0 0 0 4.229 12.125A16.104 16.104 0 0 0 148.98 511h214.04c4.464 0 8.756-1.867 11.777-5.123a16.104 16.104 0 0 0 4.227-12.125c-.3-3.999-.792-7.945-1.468-11.827h118.37a15.13 15.13 0 0 0 11.061-4.812 15.127 15.127 0 0 0 3.971-11.389c-3.522-46.933-36.91-85.453-80.552-97.372zm18.264-55.914c0 25.806-20.995 46.801-46.801 46.801s-46.8-20.995-46.8-46.801 20.995-46.8 46.8-46.8c25.806-.001 46.801 20.994 46.801 46.8zm23.727-176.93c12.464 0 22.604 10.14 22.604 22.604s-10.14 22.604-22.604 22.604-22.604-10.14-22.604-22.604 10.14-22.604 22.604-22.604zM256.001 17c12.464 0 22.604 10.14 22.604 22.604s-10.14 22.604-22.604 22.604-22.604-10.14-22.604-22.604S243.537 17 256.001 17zM17 158.112c0-12.464 10.14-22.604 22.604-22.604s22.604 10.14 22.604 22.604-10.14 22.604-22.604 22.604S17 170.575 17 158.112zm44.891 31.49c9.863-7.001 16.317-18.503 16.317-31.491 0-3.866-.578-7.598-1.64-11.122l150.177-82.243c7.085 8.232 17.568 13.461 29.256 13.461s22.171-5.228 29.256-13.46l150.177 82.243a38.482 38.482 0 0 0-1.64 11.122c0 12.988 6.454 24.49 16.317 31.491l-27.415 63.599a62.495 62.495 0 0 0-20.826-3.564c-34.628 0-62.8 28.172-62.8 62.8 0 24.346 13.935 45.485 34.239 55.901-19.366 5.257-37.038 15.82-51.072 30.768-11.24-7.207-23.689-12.643-36.933-15.915 24.2-11.136 41.051-35.597 41.051-63.935 0-38.793-31.561-70.354-70.354-70.354s-70.354 31.561-70.354 70.354c0 28.338 16.851 52.8 41.051 63.935-13.243 3.272-25.693 8.708-36.932 15.915-14.035-14.948-31.707-25.511-51.072-30.768 20.304-10.417 34.24-31.556 34.24-55.902 0-34.628-28.172-62.8-62.801-62.8a62.51 62.51 0 0 0-20.825 3.564zM256 373.61c-29.971 0-54.354-24.383-54.354-54.353 0-29.971 24.383-54.354 54.354-54.354s54.354 24.383 54.354 54.354c0 29.97-24.384 54.353-54.354 54.353zM63.33 312.438c0-25.806 20.995-46.8 46.801-46.8s46.801 20.995 46.801 46.8c0 25.806-20.995 46.801-46.801 46.801S63.33 338.244 63.33 312.438zM17.078 465.925c4.114-47.969 44.795-85.395 93.053-85.395 25.205 0 49.073 10.167 66.647 28.142-17.703 14.89-31.237 34.654-38.414 57.253zm131.854 29.07s-.003-.014 0-.047c4.178-55.692 51.208-99.317 107.068-99.317S358.89 439.256 363.02 495zm224.703-29.07c-7.177-22.599-20.711-42.363-38.414-57.253 17.574-17.975 41.442-28.142 66.648-28.142 48.255 0 88.934 37.43 93.053 85.395zM220.324 174.017h9.637v54.794c0 6.848 5.571 12.419 12.419 12.419h27.239c6.848 0 12.42-5.571 12.42-12.419v-54.794h9.632c4.918 0 9.323-2.748 11.497-7.172 2.16-4.396 1.632-9.546-1.377-13.439l-35.671-46.161a12.706 12.706 0 0 0-10.119-4.972H256a12.708 12.708 0 0 0-10.121 4.972l-35.67 46.161c-3.009 3.894-3.537 9.043-1.377 13.439 2.173 4.425 6.578 7.172 11.492 7.172zM256 120.314l29.135 37.703H274.04a8 8 0 0 0-8 8v59.213h-20.079v-59.213a8 8 0 0 0-8-8h-11.096zM113.787 228.929c0 6.249 5.084 11.333 11.333 11.333h20.547c6.249 0 11.333-5.084 11.333-11.333v-39.366h5.3c4.465 0 8.464-2.493 10.437-6.508 1.963-3.994 1.485-8.672-1.248-12.207l-26.906-34.817a11.536 11.536 0 0 0-9.188-4.516h-.003a11.534 11.534 0 0 0-9.189 4.514l-26.906 34.819c-2.732 3.535-3.211 8.212-1.249 12.207 1.973 4.016 5.971 6.509 10.432 6.509h5.306v39.365zm21.607-78.626 17.975 23.26h-4.367a8 8 0 0 0-8 8v42.7h-11.214v-42.699a8 8 0 0 0-8-8h-4.367zm214.301 39.26h5.304v39.366c0 6.249 5.084 11.333 11.334 11.333h20.547c6.25 0 11.334-5.084 11.334-11.333v-39.366h5.3c4.465 0 8.463-2.493 10.437-6.508 1.963-3.994 1.485-8.671-1.247-12.208l-26.906-34.817a11.536 11.536 0 0 0-9.188-4.516h-.003a11.534 11.534 0 0 0-9.189 4.514l-26.906 34.819c-2.732 3.535-3.211 8.212-1.249 12.207 1.972 4.016 5.971 6.509 10.432 6.509zm26.912-39.26 17.975 23.26h-4.368a8 8 0 0 0-8 8v42.7h-11.215v-42.699a8 8 0 0 0-8-8h-4.367z" fill="#eb2172" opacity="1" data-original="#000000" class=""></path></g></svg>